<?xml version="1.0" ?><svg height="60px" version="1.1" viewBox="0 0 60 60" width="60px" xmlns="http://www.w3.org/2000/svg" xmlns:xlink="http://www.w3.org/1999/xlink"><title/><desc/><defs><radialGradient cx="39.8681818%" cy="33.311215%" fx="39.8681818%" fy="33.311215%" id="radialGradient-1" r="65.1963636%"><stop offset="0%" stop-color="#0E0E17" stop-opacity="0.85"/><stop offset="76.7%" stop-color="#0E0E17"/></radialGradient></defs><g fill="none" fill-rule="evenodd" id="Page-1" stroke="none" stroke-width="1"><g fill-rule="nonzero" id="Social_icons" transform="translate(-521.000000, -754.000000)"><g id="Adobe_XD" transform="translate(521.000000, 754.000000)"><path d="M0,30 C0,13.4315 13.4315,0 30,0 C46.5685,0 60,13.4315 60,30 C60,46.5685 46.5685,60 30,60 C13.4315,60 0,46.5685 0,30 Z" fill="#FF2BC2" id="path0_fill"/><path d="M3,30 C3,15.08835 15.08835,3 30,3 C44.91165,3 57,15.08835 57,30 C57,44.91165 44.91165,57 30,57 C15.08835,57 3,44.91165 3,30 Z" fill="url(#radialGradient-1)" id="path0_fill"/><path d="M41.2219085,27.6936728 C40.9172237,27.5514866 40.5312897,27.4905496 40.043794,27.4905496 C37.4844417,27.4905496 35.7782069,29.4608446 35.7782069,32.7311281 C35.7782069,36.4685949 37.5250664,37.9717066 39.8000462,37.9717066 C40.2875418,37.9717066 40.8156621,37.9107696 41.2015962,37.7482711 L41.2015962,27.6936728 L41.2219085,27.6936728 Z M32.1219893,32.8936267 C32.1219893,28.1608562 35.1688373,24.464014 40.1656679,24.464014 C40.5922266,24.464014 40.8156621,24.464014 41.2219085,24.5046386 L41.2219085,19.2234355 C41.2219085,19.1015616 41.3234701,19.0203123 41.4250317,19.0203123 L44.6953152,19.0203123 C44.8578138,19.0203123 44.8984384,19.0812493 44.8984384,19.1828109 L44.8984384,37.7482711 C44.8984384,38.2967037 44.8984384,38.9873226 45,39.7388784 C45,39.8810646 45,39.9013769 44.8781261,39.9623139 C43.1718912,40.7748067 41.3844071,41.1404284 39.6781722,41.1404284 C35.2703989,41.1404284 32.1219893,38.4185776 32.1219893,32.8936267 L32.1219893,32.8936267 Z M25.1954883,29.6030309 L30.8829378,40.6326204 C30.9844994,40.795119 30.9235625,40.9576176 30.7610639,40.9576176 L27.2267203,40.9576176 C27.0032848,40.9576176 26.9017232,40.8966806 26.8001616,40.6935574 C25.5001731,38.0123312 24.1798723,35.2295434 22.8189469,32.345194 L22.7783223,32.345194 C21.5595831,35.0670449 20.21897,38.0326435 18.9189815,40.7138697 C18.8174199,40.8763683 18.7158583,40.9373052 18.5533598,40.9373052 L15.1815147,40.9373052 C14.9783915,40.9373052 14.9580792,40.7748067 15.0596408,40.6529328 L20.6252164,29.9483403 L15.2424517,19.3046848 C15.1205778,19.1421862 15.2424517,19 15.3846379,19 L18.8783569,19 C19.0814801,19 19.1830417,19.0406246 19.2439787,19.2234355 C20.5236548,21.924974 21.8236433,24.5858879 23.0423824,27.3077387 L23.0830071,27.3077387 C24.2611216,24.6265125 25.5611101,21.924974 26.8001616,19.2640602 C26.9017232,19.1015616 26.9626601,19 27.1657833,19 L30.4360668,19 C30.5985654,19 30.6595023,19.1218739 30.5579407,19.3046848 L25.1954883,29.6030309 L25.1954883,29.6030309 Z" fill="#FED7F0" id="Shape"/></g></g></g></svg>